%TF.GenerationSoftware,KiCad,Pcbnew,9.0.3*%
%TF.CreationDate,2025-07-28T19:21:27+02:00*%
%TF.ProjectId,USB_PD_JB,5553425f-5044-45f4-9a42-2e6b69636164,rev?*%
%TF.SameCoordinates,Original*%
%TF.FileFunction,Paste,Top*%
%TF.FilePolarity,Positive*%
%FSLAX46Y46*%
G04 Gerber Fmt 4.6, Leading zero omitted, Abs format (unit mm)*
G04 Created by KiCad (PCBNEW 9.0.3) date 2025-07-28 19:21:27*
%MOMM*%
%LPD*%
G01*
G04 APERTURE LIST*
G04 Aperture macros list*
%AMRoundRect*
0 Rectangle with rounded corners*
0 $1 Rounding radius*
0 $2 $3 $4 $5 $6 $7 $8 $9 X,Y pos of 4 corners*
0 Add a 4 corners polygon primitive as box body*
4,1,4,$2,$3,$4,$5,$6,$7,$8,$9,$2,$3,0*
0 Add four circle primitives for the rounded corners*
1,1,$1+$1,$2,$3*
1,1,$1+$1,$4,$5*
1,1,$1+$1,$6,$7*
1,1,$1+$1,$8,$9*
0 Add four rect primitives between the rounded corners*
20,1,$1+$1,$2,$3,$4,$5,0*
20,1,$1+$1,$4,$5,$6,$7,0*
20,1,$1+$1,$6,$7,$8,$9,0*
20,1,$1+$1,$8,$9,$2,$3,0*%
%AMFreePoly0*
4,1,11,1.015000,1.170000,0.435000,0.575000,0.435000,-0.575000,1.015000,-1.170000,1.015000,-1.945000,0.125000,-1.945000,-0.435000,-1.395000,-0.435000,1.395000,0.125000,1.945000,1.015000,1.945000,1.015000,1.170000,1.015000,1.170000,$1*%
%AMFreePoly1*
4,1,11,0.435000,1.395000,0.435000,-1.395000,-0.125000,-1.945000,-1.015000,-1.945000,-1.015000,-1.170000,-0.435000,-0.575000,-0.435000,0.575000,-1.015000,1.170000,-1.015000,1.945000,-0.125000,1.945000,0.435000,1.395000,0.435000,1.395000,$1*%
G04 Aperture macros list end*
%ADD10C,0.010000*%
%ADD11RoundRect,0.087500X0.250000X0.087500X-0.250000X0.087500X-0.250000X-0.087500X0.250000X-0.087500X0*%
%ADD12RoundRect,0.225000X0.225000X0.250000X-0.225000X0.250000X-0.225000X-0.250000X0.225000X-0.250000X0*%
%ADD13RoundRect,0.225000X-0.225000X-0.250000X0.225000X-0.250000X0.225000X0.250000X-0.225000X0.250000X0*%
%ADD14RoundRect,0.200000X-0.200000X-0.275000X0.200000X-0.275000X0.200000X0.275000X-0.200000X0.275000X0*%
%ADD15RoundRect,0.243750X-0.243750X-0.456250X0.243750X-0.456250X0.243750X0.456250X-0.243750X0.456250X0*%
%ADD16RoundRect,0.062500X-0.552500X-0.187500X0.552500X-0.187500X0.552500X0.187500X-0.552500X0.187500X0*%
%ADD17RoundRect,0.150000X0.512500X0.150000X-0.512500X0.150000X-0.512500X-0.150000X0.512500X-0.150000X0*%
%ADD18R,0.900000X1.000000*%
%ADD19RoundRect,0.225000X-0.250000X0.225000X-0.250000X-0.225000X0.250000X-0.225000X0.250000X0.225000X0*%
%ADD20RoundRect,0.250000X0.262500X0.450000X-0.262500X0.450000X-0.262500X-0.450000X0.262500X-0.450000X0*%
%ADD21RoundRect,0.225000X0.250000X-0.225000X0.250000X0.225000X-0.250000X0.225000X-0.250000X-0.225000X0*%
%ADD22RoundRect,0.250000X-0.262500X-0.450000X0.262500X-0.450000X0.262500X0.450000X-0.262500X0.450000X0*%
%ADD23RoundRect,0.075000X-0.340000X-0.075000X0.340000X-0.075000X0.340000X0.075000X-0.340000X0.075000X0*%
%ADD24RoundRect,0.127500X-0.127500X-0.190000X0.127500X-0.190000X0.127500X0.190000X-0.127500X0.190000X0*%
%ADD25RoundRect,0.243750X0.243750X0.456250X-0.243750X0.456250X-0.243750X-0.456250X0.243750X-0.456250X0*%
%ADD26FreePoly0,270.000000*%
%ADD27FreePoly1,270.000000*%
%ADD28RoundRect,0.150000X-0.825000X-0.150000X0.825000X-0.150000X0.825000X0.150000X-0.825000X0.150000X0*%
%ADD29RoundRect,0.250001X-1.974999X1.262499X-1.974999X-1.262499X1.974999X-1.262499X1.974999X1.262499X0*%
%ADD30RoundRect,0.075000X0.340000X0.075000X-0.340000X0.075000X-0.340000X-0.075000X0.340000X-0.075000X0*%
%ADD31RoundRect,0.127500X0.127500X0.190000X-0.127500X0.190000X-0.127500X-0.190000X0.127500X-0.190000X0*%
%ADD32RoundRect,0.218750X-0.381250X0.218750X-0.381250X-0.218750X0.381250X-0.218750X0.381250X0.218750X0*%
%ADD33RoundRect,0.167500X0.312500X-0.167500X0.312500X0.167500X-0.312500X0.167500X-0.312500X-0.167500X0*%
%ADD34RoundRect,0.062500X0.062500X-0.362500X0.062500X0.362500X-0.062500X0.362500X-0.062500X-0.362500X0*%
%ADD35RoundRect,0.250000X-1.100000X0.325000X-1.100000X-0.325000X1.100000X-0.325000X1.100000X0.325000X0*%
%ADD36RoundRect,0.250000X-0.450000X0.262500X-0.450000X-0.262500X0.450000X-0.262500X0.450000X0.262500X0*%
%ADD37RoundRect,0.112500X-0.237500X0.112500X-0.237500X-0.112500X0.237500X-0.112500X0.237500X0.112500X0*%
%ADD38RoundRect,0.250000X-0.250000X-0.475000X0.250000X-0.475000X0.250000X0.475000X-0.250000X0.475000X0*%
%ADD39RoundRect,0.100000X0.637500X0.100000X-0.637500X0.100000X-0.637500X-0.100000X0.637500X-0.100000X0*%
%ADD40RoundRect,0.250000X0.295000X0.295000X-0.295000X0.295000X-0.295000X-0.295000X0.295000X-0.295000X0*%
%ADD41RoundRect,0.062500X0.350000X0.062500X-0.350000X0.062500X-0.350000X-0.062500X0.350000X-0.062500X0*%
%ADD42RoundRect,0.062500X0.062500X0.350000X-0.062500X0.350000X-0.062500X-0.350000X0.062500X-0.350000X0*%
G04 APERTURE END LIST*
D10*
%TO.C,D2*%
X118535000Y-90880000D02*
X118015000Y-90880000D01*
X118015000Y-90120000D01*
X118535000Y-90120000D01*
X118535000Y-90880000D01*
G36*
X118535000Y-90880000D02*
G01*
X118015000Y-90880000D01*
X118015000Y-90120000D01*
X118535000Y-90120000D01*
X118535000Y-90880000D01*
G37*
X119785000Y-90880000D02*
X119265000Y-90880000D01*
X119265000Y-90120000D01*
X119785000Y-90120000D01*
X119785000Y-90880000D01*
G36*
X119785000Y-90880000D02*
G01*
X119265000Y-90880000D01*
X119265000Y-90120000D01*
X119785000Y-90120000D01*
X119785000Y-90880000D01*
G37*
%TO.C,D5*%
X168810000Y-83180000D02*
X168290000Y-83180000D01*
X168290000Y-82420000D01*
X168810000Y-82420000D01*
X168810000Y-83180000D01*
G36*
X168810000Y-83180000D02*
G01*
X168290000Y-83180000D01*
X168290000Y-82420000D01*
X168810000Y-82420000D01*
X168810000Y-83180000D01*
G37*
X170060000Y-83180000D02*
X169540000Y-83180000D01*
X169540000Y-82420000D01*
X170060000Y-82420000D01*
X170060000Y-83180000D01*
G36*
X170060000Y-83180000D02*
G01*
X169540000Y-83180000D01*
X169540000Y-82420000D01*
X170060000Y-82420000D01*
X170060000Y-83180000D01*
G37*
%TD*%
D11*
%TO.C,U6*%
X158512500Y-80800000D03*
X158512500Y-80300000D03*
X158512500Y-79800000D03*
X157087500Y-79800000D03*
X157087500Y-80300000D03*
X157087500Y-80800000D03*
%TD*%
D12*
%TO.C,C3*%
X151275000Y-81500000D03*
X149725000Y-81500000D03*
%TD*%
D13*
%TO.C,C14*%
X140750000Y-105100000D03*
X142300000Y-105100000D03*
%TD*%
D14*
%TO.C,R23*%
X131900000Y-76100000D03*
X133550000Y-76100000D03*
%TD*%
D15*
%TO.C,C1*%
X118162500Y-95000000D03*
X120037500Y-95000000D03*
%TD*%
D16*
%TO.C,D3*%
X128545000Y-101000000D03*
X128545000Y-102300000D03*
X130425000Y-101650000D03*
%TD*%
D17*
%TO.C,U4*%
X136412500Y-79949999D03*
X136412500Y-79000000D03*
X136412500Y-78050001D03*
X134137500Y-78050001D03*
X134137500Y-79000000D03*
X134137500Y-79949999D03*
%TD*%
D18*
%TO.C,RST1*%
X150575000Y-130750000D03*
X154675000Y-130750000D03*
X150575000Y-132350000D03*
X154675000Y-132350000D03*
%TD*%
D13*
%TO.C,C10*%
X141725000Y-123100000D03*
X143275000Y-123100000D03*
%TD*%
D19*
%TO.C,C13*%
X132025000Y-78925000D03*
X132025000Y-80475000D03*
%TD*%
D20*
%TO.C,R25*%
X131212500Y-91000000D03*
X129387500Y-91000000D03*
%TD*%
D13*
%TO.C,C19*%
X132225000Y-110300000D03*
X133775000Y-110300000D03*
%TD*%
D21*
%TO.C,C7*%
X149000000Y-115175000D03*
X149000000Y-113625000D03*
%TD*%
D22*
%TO.C,R16*%
X118000000Y-110100000D03*
X119825000Y-110100000D03*
%TD*%
D14*
%TO.C,R5*%
X140750000Y-101400000D03*
X142400000Y-101400000D03*
%TD*%
D22*
%TO.C,R19*%
X117975000Y-120225000D03*
X119800000Y-120225000D03*
%TD*%
D23*
%TO.C,Q1*%
X146900000Y-76000000D03*
X146900000Y-76650000D03*
X146900000Y-77300000D03*
X146900000Y-77950000D03*
D24*
X148220000Y-76349000D03*
X148220000Y-77601000D03*
X149080000Y-76349000D03*
X149080000Y-77601000D03*
D23*
X150010000Y-76000000D03*
X150010000Y-76650000D03*
X150010000Y-77300000D03*
X150010000Y-77950000D03*
%TD*%
D25*
%TO.C,D9*%
X123975001Y-120255000D03*
X122099999Y-120255000D03*
%TD*%
D14*
%TO.C,R27*%
X132175000Y-106000000D03*
X133825000Y-106000000D03*
%TD*%
D22*
%TO.C,R10*%
X149687500Y-83500000D03*
X151512500Y-83500000D03*
%TD*%
D26*
%TO.C,L1*%
X134800000Y-81700000D03*
D27*
X134800000Y-85230000D03*
%TD*%
D28*
%TO.C,U5*%
X148225000Y-101395000D03*
X148225000Y-102665000D03*
X148225000Y-103935000D03*
X148225000Y-105205000D03*
X153175000Y-105205000D03*
X153175000Y-103935000D03*
X153175000Y-102665000D03*
X153175000Y-101395000D03*
%TD*%
D19*
%TO.C,C4*%
X145300000Y-95825000D03*
X145300000Y-97375000D03*
%TD*%
D21*
%TO.C,C8*%
X147400000Y-115175000D03*
X147400000Y-113625000D03*
%TD*%
D13*
%TO.C,C9*%
X133450000Y-123000000D03*
X135000000Y-123000000D03*
%TD*%
%TO.C,C12*%
X140750000Y-103180000D03*
X142300000Y-103180000D03*
%TD*%
D22*
%TO.C,R6*%
X149687500Y-93800000D03*
X151512500Y-93800000D03*
%TD*%
%TO.C,R9*%
X149687500Y-88600000D03*
X151512500Y-88600000D03*
%TD*%
D18*
%TO.C,BOOT1*%
X150675000Y-122300000D03*
X154775000Y-122300000D03*
X150675000Y-123900000D03*
X154775000Y-123900000D03*
%TD*%
D14*
%TO.C,R24*%
X135100000Y-76100000D03*
X136750000Y-76100000D03*
%TD*%
D13*
%TO.C,C5*%
X141625000Y-96000000D03*
X143175000Y-96000000D03*
%TD*%
D29*
%TO.C,R26*%
X164700000Y-77187500D03*
X164700000Y-82212500D03*
%TD*%
D14*
%TO.C,R21*%
X132250000Y-100500000D03*
X133900000Y-100500000D03*
%TD*%
%TO.C,R12*%
X133425000Y-124975000D03*
X135075000Y-124975000D03*
%TD*%
D22*
%TO.C,R17*%
X118000000Y-113475000D03*
X119825000Y-113475000D03*
%TD*%
D25*
%TO.C,D6*%
X123975001Y-110160000D03*
X122099999Y-110160000D03*
%TD*%
D22*
%TO.C,R7*%
X149687500Y-91200000D03*
X151512500Y-91200000D03*
%TD*%
D25*
%TO.C,D10*%
X123975001Y-123620000D03*
X122099999Y-123620000D03*
%TD*%
D30*
%TO.C,Q2*%
X159390000Y-77950000D03*
X159390000Y-77300000D03*
X159390000Y-76650000D03*
X159390000Y-76000000D03*
D31*
X158070000Y-77601000D03*
X158070000Y-76349000D03*
X157210000Y-77601000D03*
X157210000Y-76349000D03*
D30*
X156280000Y-77950000D03*
X156280000Y-77300000D03*
X156280000Y-76650000D03*
X156280000Y-76000000D03*
%TD*%
D25*
%TO.C,D8*%
X123975001Y-116890000D03*
X122099999Y-116890000D03*
%TD*%
D19*
%TO.C,C15*%
X138900000Y-106325000D03*
X138900000Y-107875000D03*
%TD*%
D32*
%TO.C,FB1*%
X150900000Y-113037500D03*
X150900000Y-115162500D03*
%TD*%
D33*
%TO.C,U3*%
X136980000Y-102120000D03*
X138170000Y-102120000D03*
X136980000Y-101300000D03*
X138170000Y-101300000D03*
D34*
X136450000Y-103160000D03*
X136900000Y-103160000D03*
X137350000Y-103160000D03*
X137800000Y-103160000D03*
X138250000Y-103160000D03*
X138700000Y-103160000D03*
X138700000Y-100260000D03*
X138250000Y-100260000D03*
X137800000Y-100260000D03*
X137350000Y-100260000D03*
X136900000Y-100260000D03*
X136450000Y-100260000D03*
%TD*%
D25*
%TO.C,D7*%
X123975001Y-113525000D03*
X122099999Y-113525000D03*
%TD*%
D35*
%TO.C,C11*%
X129325000Y-77925000D03*
X129325000Y-80875000D03*
%TD*%
D15*
%TO.C,C2*%
X124050001Y-87082499D03*
X125925001Y-87082499D03*
%TD*%
D21*
%TO.C,C18*%
X156000000Y-105275000D03*
X156000000Y-103725000D03*
%TD*%
D14*
%TO.C,R14*%
X151800000Y-128800000D03*
X153450000Y-128800000D03*
%TD*%
D20*
%TO.C,R11*%
X151512500Y-86100000D03*
X149687500Y-86100000D03*
%TD*%
D14*
%TO.C,R15*%
X151900000Y-120300000D03*
X153550000Y-120300000D03*
%TD*%
%TO.C,R13*%
X141675000Y-125000000D03*
X143325000Y-125000000D03*
%TD*%
D15*
%TO.C,R1*%
X124037501Y-92400000D03*
X125912503Y-92400000D03*
%TD*%
D16*
%TO.C,D1*%
X128420001Y-96850000D03*
X128420001Y-98150000D03*
X130300000Y-97500000D03*
%TD*%
D36*
%TO.C,R8*%
X146600000Y-82187500D03*
X146600000Y-84012500D03*
%TD*%
D19*
%TO.C,C16*%
X138200000Y-80325000D03*
X138200000Y-81875000D03*
%TD*%
D22*
%TO.C,R18*%
X118000000Y-116850000D03*
X119825000Y-116850000D03*
%TD*%
%TO.C,R20*%
X117975000Y-123600000D03*
X119800000Y-123600000D03*
%TD*%
D37*
%TO.C,D4*%
X123987501Y-89032499D03*
X123987501Y-90332499D03*
X125987501Y-89682499D03*
%TD*%
D15*
%TO.C,D11*%
X129425000Y-88500000D03*
X131300000Y-88500000D03*
%TD*%
D14*
%TO.C,R22*%
X132250000Y-102900000D03*
X133900000Y-102900000D03*
%TD*%
D38*
%TO.C,C17*%
X138050000Y-85100000D03*
X139950000Y-85100000D03*
%TD*%
D39*
%TO.C,U2*%
X145562500Y-117325000D03*
X145562500Y-116675000D03*
X145562500Y-116025000D03*
X145562500Y-115375000D03*
X145562500Y-114725000D03*
X145562500Y-114075000D03*
X145562500Y-113425000D03*
X145562500Y-112775000D03*
X145562500Y-112125000D03*
X145562500Y-111475000D03*
X139837500Y-111475000D03*
X139837500Y-112125000D03*
X139837500Y-112775000D03*
X139837500Y-113425000D03*
X139837500Y-114075000D03*
X139837500Y-114725000D03*
X139837500Y-115375000D03*
X139837500Y-116025000D03*
X139837500Y-116675000D03*
X139837500Y-117325000D03*
%TD*%
D22*
%TO.C,R3*%
X149687500Y-96600000D03*
X151512500Y-96600000D03*
%TD*%
D15*
%TO.C,R2*%
X124000000Y-95000000D03*
X125875002Y-95000000D03*
%TD*%
D14*
%TO.C,R28*%
X132200000Y-108100000D03*
X133850000Y-108100000D03*
%TD*%
D40*
%TO.C,U1*%
X143825000Y-92912500D03*
X143825000Y-91562500D03*
X142475000Y-92912500D03*
X142475000Y-91562500D03*
D41*
X145112500Y-93487500D03*
X145112500Y-92987500D03*
X145112500Y-92487500D03*
X145112500Y-91987500D03*
X145112500Y-91487500D03*
X145112500Y-90987500D03*
D42*
X144400000Y-90275000D03*
X143900000Y-90275000D03*
X143400000Y-90275000D03*
X142900000Y-90275000D03*
X142400000Y-90275000D03*
X141900000Y-90275000D03*
D41*
X141187500Y-90987500D03*
X141187500Y-91487500D03*
X141187500Y-91987500D03*
X141187500Y-92487500D03*
X141187500Y-92987500D03*
X141187500Y-93487500D03*
D42*
X141900000Y-94200000D03*
X142400000Y-94200000D03*
X142900000Y-94200000D03*
X143400000Y-94200000D03*
X143900000Y-94200000D03*
X144400000Y-94200000D03*
%TD*%
D12*
%TO.C,C6*%
X158575000Y-83300000D03*
X157025000Y-83300000D03*
%TD*%
D14*
%TO.C,R4*%
X140750000Y-99600000D03*
X142400000Y-99600000D03*
%TD*%
M02*
