%TF.GenerationSoftware,KiCad,Pcbnew,9.0.3*%
%TF.CreationDate,2025-07-28T19:21:27+02:00*%
%TF.ProjectId,USB_PD_JB,5553425f-5044-45f4-9a42-2e6b69636164,rev?*%
%TF.SameCoordinates,Original*%
%TF.FileFunction,Soldermask,Bot*%
%TF.FilePolarity,Negative*%
%FSLAX46Y46*%
G04 Gerber Fmt 4.6, Leading zero omitted, Abs format (unit mm)*
G04 Created by KiCad (PCBNEW 9.0.3) date 2025-07-28 19:21:27*
%MOMM*%
%LPD*%
G01*
G04 APERTURE LIST*
G04 Aperture macros list*
%AMRoundRect*
0 Rectangle with rounded corners*
0 $1 Rounding radius*
0 $2 $3 $4 $5 $6 $7 $8 $9 X,Y pos of 4 corners*
0 Add a 4 corners polygon primitive as box body*
4,1,4,$2,$3,$4,$5,$6,$7,$8,$9,$2,$3,0*
0 Add four circle primitives for the rounded corners*
1,1,$1+$1,$2,$3*
1,1,$1+$1,$4,$5*
1,1,$1+$1,$6,$7*
1,1,$1+$1,$8,$9*
0 Add four rect primitives between the rounded corners*
20,1,$1+$1,$2,$3,$4,$5,0*
20,1,$1+$1,$4,$5,$6,$7,0*
20,1,$1+$1,$6,$7,$8,$9,0*
20,1,$1+$1,$8,$9,$2,$3,0*%
G04 Aperture macros list end*
%ADD10C,2.000000*%
%ADD11C,3.600000*%
%ADD12C,5.600000*%
%ADD13R,1.700000X1.700000*%
%ADD14C,1.700000*%
%ADD15C,0.700000*%
%ADD16O,2.400000X0.900000*%
%ADD17O,1.700000X0.900000*%
%ADD18RoundRect,0.102000X1.387500X1.387500X-1.387500X1.387500X-1.387500X-1.387500X1.387500X-1.387500X0*%
%ADD19C,2.979000*%
%ADD20RoundRect,0.250000X1.050000X-1.050000X1.050000X1.050000X-1.050000X1.050000X-1.050000X-1.050000X0*%
%ADD21C,2.600000*%
G04 APERTURE END LIST*
D10*
%TO.C,OK1*%
X139350000Y-127900000D03*
X145850000Y-127900000D03*
X139350000Y-132400000D03*
X145850000Y-132400000D03*
%TD*%
D11*
%TO.C,H1*%
X121000000Y-77000000D03*
D12*
X121000000Y-77000000D03*
%TD*%
D10*
%TO.C,MENU1*%
X127350000Y-127900000D03*
X133850000Y-127900000D03*
X127350000Y-132400000D03*
X133850000Y-132400000D03*
%TD*%
D13*
%TO.C,J5*%
X163800000Y-124900000D03*
D14*
X163800000Y-127440000D03*
X163800000Y-129979999D03*
X163800000Y-132520000D03*
%TD*%
D11*
%TO.C,H3*%
X172000000Y-77000000D03*
D12*
X172000000Y-77000000D03*
%TD*%
D13*
%TO.C,J4*%
X159200000Y-124900000D03*
D14*
X159200000Y-127440000D03*
X159200000Y-129979999D03*
X159200000Y-132520000D03*
%TD*%
D15*
%TO.C,J1*%
X124360000Y-98700000D03*
X124360000Y-99550000D03*
X124360000Y-100400001D03*
X124360000Y-101250000D03*
X124360000Y-102100000D03*
X124360000Y-102950000D03*
X124360000Y-103800001D03*
X124360000Y-104650000D03*
X123010000Y-104650000D03*
X123010000Y-103800000D03*
X123010000Y-102950000D03*
X123010000Y-102100000D03*
X123010000Y-101250000D03*
X123010000Y-100400000D03*
X123010000Y-99550000D03*
X123010000Y-98700000D03*
D16*
X123380000Y-97350000D03*
D17*
X120000000Y-97350000D03*
D16*
X123380000Y-106000000D03*
D17*
X120000000Y-106000000D03*
%TD*%
D18*
%TO.C,SW1*%
X171800000Y-90200000D03*
D19*
X167100000Y-90200000D03*
X162400000Y-90200000D03*
%TD*%
D11*
%TO.C,H4*%
X171000000Y-130800000D03*
D12*
X171000000Y-130800000D03*
%TD*%
D15*
%TO.C,J3*%
X167475000Y-120775000D03*
X167475000Y-119925000D03*
X167475000Y-119074999D03*
X167475000Y-118225000D03*
X167475000Y-117375000D03*
X167475000Y-116525000D03*
X167475000Y-115674999D03*
X167475000Y-114825000D03*
X168825000Y-114825000D03*
X168825000Y-115675000D03*
X168825000Y-116525000D03*
X168825000Y-117375000D03*
X168825000Y-118225000D03*
X168825000Y-119075000D03*
X168825000Y-119925000D03*
X168825000Y-120775000D03*
D16*
X168455000Y-122125000D03*
D17*
X171835000Y-122125000D03*
D16*
X168455000Y-113475000D03*
D17*
X171835000Y-113475000D03*
%TD*%
D11*
%TO.C,H2*%
X121000000Y-130800000D03*
D12*
X121000000Y-130800000D03*
%TD*%
D20*
%TO.C,J2*%
X167372500Y-103845001D03*
D21*
X167372500Y-98765002D03*
%TD*%
M02*
