M48
; DRILL file {KiCad 9.0.3} date 2025-07-28T19:21:28+0200
; FORMAT={-:-/ absolute / metric / decimal}
; #@! TF.CreationDate,2025-07-28T19:21:28+02:00
; #@! TF.GenerationSoftware,Kicad,Pcbnew,9.0.3
; #@! TF.FileFunction,MixedPlating,1,4
FMAT,2
METRIC
; #@! TA.AperFunction,Plated,PTH,ViaDrill
T1C0.300
; #@! TA.AperFunction,Plated,PTH,ComponentDrill
T2C0.400
; #@! TA.AperFunction,Plated,PTH,ComponentDrill
T3C0.600
; #@! TA.AperFunction,Plated,PTH,ComponentDrill
T4C1.000
; #@! TA.AperFunction,Plated,PTH,ComponentDrill
T5C1.100
; #@! TA.AperFunction,Plated,PTH,ComponentDrill
T6C1.300
; #@! TA.AperFunction,Plated,PTH,ComponentDrill
T7C1.850
; #@! TA.AperFunction,Plated,PTH,ComponentDrill
T8C3.200
%
G90
G05
T1
X120.981Y-90.5
X121.4Y-95.0
X125.9Y-85.6
X126.4Y-96.8
X127.8Y-88.4
X128.7Y-82.4
X129.7Y-82.4
X130.7Y-82.4
X131.7Y-97.5
X131.8Y-82.0
X132.1Y-101.7
X134.9Y-110.3
X135.0Y-108.1
X135.0Y-121.7
X135.2Y-101.3
X135.2Y-102.0
X135.3Y-79.0
X137.0Y-94.9
X137.025Y-98.975
X137.1Y-93.5
X137.1Y-97.5
X137.775Y-107.9
X137.8Y-78.05
X137.8Y-79.0
X137.9Y-76.1
X138.05Y-83.5
X138.25Y-104.35
X138.6Y-79.0
X139.025Y-99.025
X139.1Y-93.487
X139.65Y-91.35
X139.65Y-92.5
X139.85Y-118.3
X139.9Y-79.0
X139.9Y-79.88
X139.9Y-80.76
X139.9Y-81.64
X139.9Y-82.52
X139.9Y-83.4
X139.9Y-90.4
X141.0Y-79.8
X141.0Y-80.8
X141.0Y-81.8
X141.0Y-82.8
X142.05Y-116.0
X142.1Y-88.4
X142.3Y-106.35
X142.85Y-114.1
X143.2Y-97.4
X143.6Y-104.2
X143.9Y-88.5
X144.5Y-123.5
X144.65Y-102.35
X144.65Y-103.65
X144.838Y-84.013
X144.95Y-88.5
X144.95Y-109.9
X146.1Y-101.3
X146.1Y-102.7
X146.3Y-91.7
X146.3Y-93.2
X146.65Y-109.9
X146.7Y-97.5
X146.8Y-94.85
X147.6Y-116.7
X147.8Y-87.2
X148.0Y-73.0
X148.0Y-80.3
X148.1Y-91.2
X148.1Y-93.75
X148.5Y-81.5
X148.5Y-83.5
X148.55Y-122.3
X148.9Y-131.35
X148.95Y-109.45
X149.0Y-73.0
X149.0Y-111.4
X149.0Y-112.35
X150.0Y-73.0
X150.5Y-98.65
X151.0Y-73.0
X152.0Y-73.0
X152.8Y-91.2
X152.8Y-93.8
X152.8Y-96.7
X153.0Y-80.1
X153.6Y-118.4
X154.7Y-129.15
X154.85Y-88.65
X155.9Y-79.8
X156.0Y-102.15
X157.1Y-81.85
X158.5Y-81.85
X159.4Y-74.2
X159.7Y-79.8
T2
X123.01Y-98.7
X123.01Y-99.55
X123.01Y-100.4
X123.01Y-101.25
X123.01Y-102.1
X123.01Y-102.95
X123.01Y-103.8
X123.01Y-104.65
X124.36Y-98.7
X124.36Y-99.55
X124.36Y-100.4
X124.36Y-101.25
X124.36Y-102.1
X124.36Y-102.95
X124.36Y-103.8
X124.36Y-104.65
X167.475Y-114.825
X167.475Y-115.675
X167.475Y-116.525
X167.475Y-117.375
X167.475Y-118.225
X167.475Y-119.075
X167.475Y-119.925
X167.475Y-120.775
X168.825Y-114.825
X168.825Y-115.675
X168.825Y-116.525
X168.825Y-117.375
X168.825Y-118.225
X168.825Y-119.075
X168.825Y-119.925
X168.825Y-120.775
T4
X159.2Y-124.9
X159.2Y-127.44
X159.2Y-129.98
X159.2Y-132.52
X163.8Y-124.9
X163.8Y-127.44
X163.8Y-129.98
X163.8Y-132.52
T5
X127.35Y-127.9
X127.35Y-132.4
X133.85Y-127.9
X133.85Y-132.4
X139.35Y-127.9
X139.35Y-132.4
X145.85Y-127.9
X145.85Y-132.4
T6
X167.373Y-98.765
X167.373Y-103.845
T7
X162.4Y-90.2
X167.1Y-90.2
X171.8Y-90.2
T8
X121.0Y-77.0
X121.0Y-130.8
X171.0Y-130.8
X172.0Y-77.0
T3
X120.4Y-97.35G85X119.6Y-97.35
G05
X120.4Y-106.0G85X119.6Y-106.0
G05
X124.13Y-97.35G85X122.63Y-97.35
G05
X124.13Y-106.0G85X122.63Y-106.0
G05
X167.705Y-113.475G85X169.205Y-113.475
G05
X167.705Y-122.125G85X169.205Y-122.125
G05
X171.435Y-113.475G85X172.235Y-113.475
G05
X171.435Y-122.125G85X172.235Y-122.125
G05
M30
